<svg width="25" height="24" viewBox="0 0 25 24" fill="none" xmlns="http://www.w3.org/2000/svg">
<path fill-rule="evenodd" clip-rule="evenodd" d="M21 5.4H3.2222V19.8H21V5.4ZM3.2222 4.2C2.60855 4.2 2.11108 4.73726 2.11108 5.4V19.8C2.11108 20.4627 2.60855 21 3.2222 21H21C21.6136 21 22.1111 20.4627 22.1111 19.8V5.4C22.1111 4.73726 21.6136 4.2 21 4.2H3.2222Z" fill="black"/>
<path d="M5.44442 3.6C5.44442 3.26863 5.69315 3 5.99997 3C6.3068 3 6.55553 3.26863 6.55553 3.6V6C6.55553 6.33137 6.3068 6.6 5.99997 6.6C5.69315 6.6 5.44442 6.33137 5.44442 6V3.6Z" fill="black"/>
<path d="M18.7778 3.6C18.7778 3.26863 19.0265 3 19.3333 3C19.6401 3 19.8889 3.26863 19.8889 3.6V6C19.8889 6.33137 19.6401 6.6 19.3333 6.6C19.0265 6.6 18.7778 6.33137 18.7778 6V3.6Z" fill="black"/>
<path fill-rule="evenodd" clip-rule="evenodd" d="M7.94442 9.3H6.83331V10.5H7.94442V9.3ZM6.83331 9C6.67989 9 6.55553 9.13431 6.55553 9.3V10.5C6.55553 10.6657 6.67989 10.8 6.83331 10.8H7.94442C8.09783 10.8 8.2222 10.6657 8.2222 10.5V9.3C8.2222 9.13431 8.09783 9 7.94442 9H6.83331Z" fill="black"/>
<path fill-rule="evenodd" clip-rule="evenodd" d="M7.94442 12.9H6.83331V14.1H7.94442V12.9ZM6.83331 12.6C6.67989 12.6 6.55553 12.7343 6.55553 12.9V14.1C6.55553 14.2657 6.67989 14.4 6.83331 14.4H7.94442C8.09783 14.4 8.2222 14.2657 8.2222 14.1V12.9C8.2222 12.7343 8.09783 12.6 7.94442 12.6H6.83331Z" fill="black"/>
<path fill-rule="evenodd" clip-rule="evenodd" d="M7.94442 16.5H6.83331V17.7H7.94442V16.5ZM6.83331 16.2C6.67989 16.2 6.55553 16.3343 6.55553 16.5V17.7C6.55553 17.8657 6.67989 18 6.83331 18H7.94442C8.09783 18 8.2222 17.8657 8.2222 17.7V16.5C8.2222 16.3343 8.09783 16.2 7.94442 16.2H6.83331Z" fill="black"/>
<path fill-rule="evenodd" clip-rule="evenodd" d="M10.7222 9.3H9.61108V10.5H10.7222V9.3ZM9.61108 9C9.45767 9 9.33331 9.13431 9.33331 9.3V10.5C9.33331 10.6657 9.45767 10.8 9.61108 10.8H10.7222C10.8756 10.8 11 10.6657 11 10.5V9.3C11 9.13431 10.8756 9 10.7222 9H9.61108Z" fill="black"/>
<path fill-rule="evenodd" clip-rule="evenodd" d="M10.7222 12.9H9.61108V14.1H10.7222V12.9ZM9.61108 12.6C9.45767 12.6 9.33331 12.7343 9.33331 12.9V14.1C9.33331 14.2657 9.45767 14.4 9.61108 14.4H10.7222C10.8756 14.4 11 14.2657 11 14.1V12.9C11 12.7343 10.8756 12.6 10.7222 12.6H9.61108Z" fill="black"/>
<path fill-rule="evenodd" clip-rule="evenodd" d="M10.7222 16.5H9.61108V17.7H10.7222V16.5ZM9.61108 16.2C9.45767 16.2 9.33331 16.3343 9.33331 16.5V17.7C9.33331 17.8657 9.45767 18 9.61108 18H10.7222C10.8756 18 11 17.8657 11 17.7V16.5C11 16.3343 10.8756 16.2 10.7222 16.2H9.61108Z" fill="black"/>
<path fill-rule="evenodd" clip-rule="evenodd" d="M13.5 9.3H12.3889V10.5H13.5V9.3ZM12.3889 9C12.2354 9 12.1111 9.13431 12.1111 9.3V10.5C12.1111 10.6657 12.2354 10.8 12.3889 10.8H13.5C13.6534 10.8 13.7778 10.6657 13.7778 10.5V9.3C13.7778 9.13431 13.6534 9 13.5 9H12.3889Z" fill="black"/>
<path fill-rule="evenodd" clip-rule="evenodd" d="M13.5 12.9H12.3889V14.1H13.5V12.9ZM12.3889 12.6C12.2354 12.6 12.1111 12.7343 12.1111 12.9V14.1C12.1111 14.2657 12.2354 14.4 12.3889 14.4H13.5C13.6534 14.4 13.7778 14.2657 13.7778 14.1V12.9C13.7778 12.7343 13.6534 12.6 13.5 12.6H12.3889Z" fill="black"/>
<path fill-rule="evenodd" clip-rule="evenodd" d="M13.5 16.5H12.3889V17.7H13.5V16.5ZM12.3889 16.2C12.2354 16.2 12.1111 16.3343 12.1111 16.5V17.7C12.1111 17.8657 12.2354 18 12.3889 18H13.5C13.6534 18 13.7778 17.8657 13.7778 17.7V16.5C13.7778 16.3343 13.6534 16.2 13.5 16.2H12.3889Z" fill="black"/>
<path fill-rule="evenodd" clip-rule="evenodd" d="M19.0555 9.3H17.9444V10.5H19.0555V9.3ZM17.9444 9C17.791 9 17.6666 9.13431 17.6666 9.3V10.5C17.6666 10.6657 17.791 10.8 17.9444 10.8H19.0555C19.2089 10.8 19.3333 10.6657 19.3333 10.5V9.3C19.3333 9.13431 19.2089 9 19.0555 9H17.9444Z" fill="black"/>
<path fill-rule="evenodd" clip-rule="evenodd" d="M19.0555 12.9H17.9444V14.1H19.0555V12.9ZM17.9444 12.6C17.791 12.6 17.6666 12.7343 17.6666 12.9V14.1C17.6666 14.2657 17.791 14.4 17.9444 14.4H19.0555C19.2089 14.4 19.3333 14.2657 19.3333 14.1V12.9C19.3333 12.7343 19.2089 12.6 19.0555 12.6H17.9444Z" fill="black"/>
<path fill-rule="evenodd" clip-rule="evenodd" d="M19.0555 16.5H17.9444V17.7H19.0555V16.5ZM17.9444 16.2C17.791 16.2 17.6666 16.3343 17.6666 16.5V17.7C17.6666 17.8657 17.791 18 17.9444 18H19.0555C19.2089 18 19.3333 17.8657 19.3333 17.7V16.5C19.3333 16.3343 19.2089 16.2 19.0555 16.2H17.9444Z" fill="black"/>
<path fill-rule="evenodd" clip-rule="evenodd" d="M16.2778 9.3H15.1666V10.5H16.2778V9.3ZM15.1666 9C15.0132 9 14.8889 9.13431 14.8889 9.3V10.5C14.8889 10.6657 15.0132 10.8 15.1666 10.8H16.2778C16.4312 10.8 16.5555 10.6657 16.5555 10.5V9.3C16.5555 9.13431 16.4312 9 16.2778 9H15.1666Z" fill="black"/>
<path fill-rule="evenodd" clip-rule="evenodd" d="M16.2778 12.9H15.1666V14.1H16.2778V12.9ZM15.1666 12.6C15.0132 12.6 14.8889 12.7343 14.8889 12.9V14.1C14.8889 14.2657 15.0132 14.4 15.1666 14.4H16.2778C16.4312 14.4 16.5555 14.2657 16.5555 14.1V12.9C16.5555 12.7343 16.4312 12.6 16.2778 12.6H15.1666Z" fill="black"/>
<path fill-rule="evenodd" clip-rule="evenodd" d="M16.2778 16.5H15.1666V17.7H16.2778V16.5ZM15.1666 16.2C15.0132 16.2 14.8889 16.3343 14.8889 16.5V17.7C14.8889 17.8657 15.0132 18 15.1666 18H16.2778C16.4312 18 16.5555 17.8657 16.5555 17.7V16.5C16.5555 16.3343 16.4312 16.2 16.2778 16.2H15.1666Z" fill="black"/>
<path d="M4.33331 9.6144V9.1752L5.21108 9V10.716H4.74442V9.516L4.33331 9.6144Z" fill="black"/>
<path d="M4.33331 14.3184L5.0022 13.5864C5.04812 13.532 5.08738 13.4848 5.11997 13.4448C5.15405 13.4032 5.17997 13.3632 5.19775 13.3248C5.21553 13.2864 5.22442 13.2456 5.22442 13.2024C5.22442 13.1816 5.22145 13.1616 5.21553 13.1424C5.2096 13.1232 5.19997 13.1064 5.18664 13.092C5.17331 13.0776 5.15627 13.0664 5.13553 13.0584C5.11627 13.0488 5.09257 13.044 5.06442 13.044C5.02738 13.044 4.99479 13.0552 4.96664 13.0776C4.93849 13.0984 4.91627 13.1272 4.89997 13.164C4.88516 13.2008 4.87775 13.2416 4.87775 13.2864H4.39997C4.39997 13.1664 4.42516 13.0544 4.47553 12.9504C4.5259 12.8464 4.60145 12.7624 4.7022 12.6984C4.80442 12.6328 4.93108 12.6 5.0822 12.6C5.18442 12.6 5.27553 12.616 5.35553 12.648C5.43701 12.6784 5.50516 12.7208 5.55997 12.7752C5.61627 12.828 5.65849 12.888 5.68664 12.9552C5.71627 13.0224 5.73108 13.092 5.73108 13.164C5.73108 13.2568 5.7096 13.3392 5.66664 13.4112C5.62368 13.4816 5.56664 13.5464 5.49553 13.6056L5.21553 13.8384H5.78664V14.3184H4.33331Z" fill="black"/>
<path d="M4.88442 17.112V16.8984C4.92294 16.8984 4.95849 16.8936 4.99108 16.884C5.02516 16.8744 5.05405 16.8608 5.07775 16.8432C5.10294 16.8256 5.1222 16.8056 5.13553 16.7832C5.14886 16.7608 5.15553 16.7376 5.15553 16.7136C5.15553 16.6928 5.15034 16.6744 5.13997 16.6584C5.1296 16.6424 5.11405 16.6304 5.09331 16.6224C5.07405 16.6128 5.04812 16.608 5.01553 16.608C4.96516 16.608 4.92442 16.6232 4.89331 16.6536C4.8622 16.684 4.84664 16.724 4.84664 16.7736H4.39997C4.39997 16.6664 4.42516 16.5696 4.47553 16.4832C4.5259 16.3968 4.59701 16.328 4.68886 16.2768C4.7822 16.2256 4.89182 16.2 5.01775 16.2C5.15108 16.2 5.26368 16.2208 5.35553 16.2624C5.44738 16.304 5.51701 16.3608 5.56442 16.4328C5.61182 16.5048 5.63553 16.5864 5.63553 16.6776C5.63553 16.7848 5.60145 16.8704 5.53331 16.9344C5.46516 16.9968 5.37405 17.0424 5.25997 17.0712C5.14738 17.0984 5.0222 17.112 4.88442 17.112ZM4.99553 17.964C4.89034 17.964 4.79627 17.9464 4.71331 17.9112C4.63182 17.876 4.56294 17.828 4.50664 17.7672C4.45034 17.7064 4.40738 17.6384 4.37775 17.5632C4.34812 17.4864 4.33331 17.408 4.33331 17.328H4.81331C4.81331 17.384 4.82294 17.4288 4.8422 17.4624C4.86294 17.496 4.88886 17.52 4.91997 17.5344C4.95257 17.5488 4.98516 17.556 5.01775 17.556C5.05183 17.556 5.0822 17.552 5.10886 17.544C5.13701 17.5344 5.15923 17.5184 5.17553 17.496C5.19182 17.472 5.19997 17.44 5.19997 17.4C5.19997 17.376 5.19479 17.3528 5.18442 17.3304C5.17405 17.3064 5.15701 17.2856 5.13331 17.268C5.1096 17.2488 5.07701 17.2344 5.03553 17.2248C4.99553 17.2136 4.94516 17.208 4.88442 17.208V16.9584C5.00442 16.9584 5.11257 16.968 5.20886 16.9872C5.30664 17.0048 5.39034 17.0336 5.45997 17.0736C5.53108 17.1136 5.58516 17.1648 5.6222 17.2272C5.66071 17.288 5.67997 17.3616 5.67997 17.448C5.67997 17.5472 5.65331 17.636 5.59997 17.7144C5.54812 17.7912 5.47108 17.852 5.36886 17.8968C5.26812 17.9416 5.14368 17.964 4.99553 17.964Z" fill="black"/>
<path d="M10.3511 6.7776L10.2444 7.8H9.97331L10.1866 6.036L10.8244 7.176L11.4644 6.036L11.6778 7.8H11.4066L11.2978 6.7776L10.8244 7.644L10.3511 6.7776Z" fill="black"/>
<path d="M12.064 7.4568C12.064 7.4936 12.0721 7.5256 12.0884 7.5528C12.1047 7.5784 12.1269 7.5976 12.1551 7.6104C12.1847 7.6232 12.218 7.6296 12.2551 7.6296C12.3025 7.6296 12.3454 7.6192 12.384 7.5984C12.424 7.5776 12.4558 7.5472 12.4795 7.5072C12.5047 7.4656 12.5173 7.4176 12.5173 7.3632L12.5529 7.5072C12.5529 7.5776 12.5336 7.6368 12.4951 7.6848C12.458 7.7312 12.4106 7.7664 12.3529 7.7904C12.2966 7.8128 12.2388 7.824 12.1795 7.824C12.1158 7.824 12.0566 7.8104 12.0017 7.7832C11.9469 7.756 11.9032 7.716 11.8706 7.6632C11.838 7.6104 11.8217 7.5464 11.8217 7.4712C11.8217 7.364 11.8566 7.2792 11.9262 7.2168C11.9958 7.1528 12.0943 7.1208 12.2217 7.1208C12.2899 7.1208 12.3484 7.1288 12.3973 7.1448C12.4477 7.1608 12.4892 7.18 12.5217 7.2024C12.5543 7.2232 12.5773 7.2424 12.5906 7.26V7.392C12.5447 7.3568 12.4958 7.3312 12.444 7.3152C12.3921 7.2992 12.3373 7.2912 12.2795 7.2912C12.2292 7.2912 12.1884 7.2984 12.1573 7.3128C12.1262 7.3256 12.1025 7.344 12.0862 7.368C12.0714 7.392 12.064 7.4216 12.064 7.4568ZM11.9884 6.984L11.8906 6.8016C11.9366 6.7712 11.9958 6.7416 12.0684 6.7128C12.1425 6.684 12.2269 6.6696 12.3217 6.6696C12.4062 6.6696 12.4803 6.6832 12.544 6.7104C12.6092 6.7376 12.6603 6.7768 12.6973 6.828C12.7343 6.8776 12.7529 6.9392 12.7529 7.0128V7.8H12.5173V7.0632C12.5173 7.028 12.5114 6.9992 12.4995 6.9768C12.4892 6.9544 12.4743 6.936 12.4551 6.9216C12.4358 6.9072 12.4129 6.8968 12.3862 6.8904C12.3595 6.884 12.3306 6.8808 12.2995 6.8808C12.2521 6.8808 12.2069 6.8872 12.164 6.9C12.1225 6.9112 12.0862 6.9256 12.0551 6.9432C12.0254 6.9592 12.0032 6.9728 11.9884 6.984Z" fill="black"/>
<path d="M13.9262 6.696L13.2596 8.328H13.004L13.2707 7.6704L12.8596 6.696H13.1351L13.4618 7.5696L13.3485 7.5624L13.6685 6.696H13.9262Z" fill="black"/>
</svg>
