<svg width="25" height="24" viewBox="0 0 25 24" fill="none" xmlns="http://www.w3.org/2000/svg">
<path fill-rule="evenodd" clip-rule="evenodd" d="M4.33331 4.14286C4.33331 2.95939 5.31015 2 6.51513 2H12.3333C12.5262 2 12.7112 2.07525 12.8476 2.20921L20.1203 9.35207C20.2567 9.48602 20.3333 9.6677 20.3333 9.85714V19.8571C20.3333 21.0406 19.3565 22 18.1515 22H6.51513C5.31015 22 4.33331 21.0406 4.33331 19.8571V4.14286ZM6.51513 3.42857C6.11347 3.42857 5.78786 3.74837 5.78786 4.14286V19.8571C5.78786 20.2516 6.11347 20.5714 6.51513 20.5714H18.1515C18.5532 20.5714 18.8788 20.2516 18.8788 19.8571V10.5036L13.5708 9.98224C12.4554 9.8727 11.606 8.95091 11.606 7.85002V3.42857H6.51513ZM13.0606 4.43872L17.6511 8.94729L13.7155 8.56076C13.3437 8.52424 13.0606 8.21698 13.0606 7.85002V4.43872Z" fill="black"/>
<path fill-rule="evenodd" clip-rule="evenodd" d="M6.62939 12C6.62939 11.7041 6.8736 11.4643 7.17484 11.4643H16.6969C16.9982 11.4643 17.2424 11.7041 17.2424 12C17.2424 12.2959 16.9982 12.5357 16.6969 12.5357H7.17484C6.8736 12.5357 6.62939 12.2959 6.62939 12Z" fill="black"/>
<path fill-rule="evenodd" clip-rule="evenodd" d="M6.69695 14.1429C6.69695 13.847 6.94116 13.6071 7.2424 13.6071H12.3333C12.6346 13.6071 12.8788 13.847 12.8788 14.1429C12.8788 14.4387 12.6346 14.6786 12.3333 14.6786H7.2424C6.94116 14.6786 6.69695 14.4387 6.69695 14.1429Z" fill="black"/>
<path fill-rule="evenodd" clip-rule="evenodd" d="M6.69695 16.2857C6.69695 15.9898 6.94116 15.75 7.2424 15.75H15.2424C15.5437 15.75 15.7879 15.9898 15.7879 16.2857C15.7879 16.5816 15.5437 16.8214 15.2424 16.8214H7.2424C6.94116 16.8214 6.69695 16.5816 6.69695 16.2857Z" fill="black"/>
</svg>
